<svg aria-hidden="true" style="position:absolute;width:0;height:0;overflow:hidden" xmlns="http://www.w3.org/2000/svg">
  <defs>
    <symbol id="icon-antenna" viewBox="0 0 32 32">
      <path d="m30.773 22.098-8.443-8.505.937-4.615c.242.094.499.144.758.146h.006a2.159 2.159 0 1 0-2.008-1.435l-4.96.605L8.972.161a.534.534 0 0 0-.377-.16.532.532 0 0 0-.373.155L6.709 1.66a.534.534 0 0 0 0 .754l.814.826a14.943 14.943 0 0 0 2.519 17.663.513.513 0 0 0 .146.098c-.034.18-.051.364-.052.547v6.187h-6.4a2.67 2.67 0 0 0-2.667 2.667v1.067c0 .295.239.533.533.533h24.533a.533.533 0 0 0 .533-.533v-1.067a2.67 2.67 0 0 0-2.667-2.667h-6.4v-2.742a15.09 15.09 0 0 0 3.049.32 14.854 14.854 0 0 0 7.04-1.783l.818.823a.534.534 0 0 0 .377.16.532.532 0 0 0 .373-.155l1.513-1.504a.534.534 0 0 0 0-.754zM23.28 6.233a1.067 1.067 0 1 1 .753 1.822h-.003a1.067 1.067 0 0 1-.747-1.823h-.002zm-1.256 3.505-.598 2.946-1.175-1.182 1.774-1.763zm-.605-.902-1.92 1.909-1.485-1.493 3.405-.415zM24.004 28.8a1.6 1.6 0 0 1 1.6 1.6v.533H2.137V30.4a1.6 1.6 0 0 1 1.6-1.6h20.267zm-7.467-2.133v1.067h-5.333v-1.067h5.333zM11.204 25.6v-4.053c0-1.294 1.196-2.347 2.667-2.347s2.667 1.053 2.667 2.347V25.6h-5.333zm6.4-1.696v-2.357c0-1.882-1.675-3.413-3.733-3.413a3.8 3.8 0 0 0-3.281 1.786A13.87 13.87 0 0 1 8.311 4.033l18.602 18.708a13.818 13.818 0 0 1-9.309 1.163zm11.289-.684L7.836 2.039l.755-.752 7.935 7.98c.004 0 .006.007.01.01l13.115 13.191-.757.752z"/>
      <path d="M13.876 20.267h-.005a1.6 1.6 0 1 0-.004 3.2h.005a1.6 1.6 0 1 0 .004-3.2zm.373 1.978a.534.534 0 0 1-.752-.756.534.534 0 0 1 .373-.155.534.534 0 0 1 .374.911h.005z"/>
    </symbol>
    <symbol id="icon-astronaut" viewBox="0 0 32 32">
      <path d="M31.974 4.524a.534.534 0 0 0-.43-.363l-1.91-.278-.855-1.731c-.179-.365-.777-.365-.956 0l-.855 1.731-1.91.278a.535.535 0 0 0-.296.91l1.383 1.348-.326 1.903c-.034.2.048.402.212.522a.53.53 0 0 0 .562.04l1.709-.899 1.709.899a.536.536 0 0 0 .775-.563l-.326-1.903 1.383-1.348a.536.536 0 0 0 .135-.547zm-2.463 1.327a.534.534 0 0 0-.153.472l.191 1.114-1-.526a.533.533 0 0 0-.498 0l-1.001.526.191-1.114a.534.534 0 0 0-.153-.472l-.81-.789 1.119-.163a.532.532 0 0 0 .402-.292l.5-1.013.5 1.013a.535.535 0 0 0 .402.292l1.119.163-.809.789zM26.133 20.522h-1.067v1.067h1.067v-1.067zM26.133 22.656h-1.067v1.067h1.067v-1.067zM27.2 21.589h-1.067v1.067H27.2v-1.067zM25.067 21.589H24v1.067h1.067v-1.067zM22.4 26.389h-1.067v1.067H22.4v-1.067zM22.4 28.522h-1.067v1.067H22.4v-1.067zM23.467 27.456H22.4v1.067h1.067v-1.067zM21.333 27.456h-1.067v1.067h1.067v-1.067zM16 24.256h-1.067v1.067H16v-1.067zM16 26.389h-1.067v1.067H16v-1.067zM17.067 25.322H16v1.067h1.067v-1.067zM14.933 25.322h-1.067v1.067h1.067v-1.067zM5.867 6.122H4.8v1.067h1.067V6.122zM5.867 8.255H4.8v1.067h1.067V8.255z"/>
      <path d="M6.933 7.189H5.866v1.067h1.067V7.189zM4.8 7.189H3.733v1.067H4.8V7.189z"/>
      <path d="M24.715 14.159a1.775 1.775 0 0 0-1.188-.705 1.778 1.778 0 0 0-1.34.352l-1.252.96-1.898 1.417-1.358-.541c2.421-1.086 4.114-3.508 4.114-6.32 0-3.823-3.123-6.933-6.961-6.933s-6.961 3.11-6.961 6.933a6.86 6.86 0 0 0 1.12 3.758l-2.764-.024h-.005c-.009 0-.015.004-.023.005a.515.515 0 0 0-.155.031l-.038.013c-.006.003-.013.003-.019.006l-3.233 1.596-.001.001-1.893.911a.397.397 0 0 0-.063.035 1.779 1.779 0 0 0-.598 2.295c.22.429.595.745 1.056.889a1.776 1.776 0 0 0 1.378-.128l1.388-.738 2.264-1.169 1.357-.008L2.2 22.211l-.002.001-1.339 1.333c-.316.315-.49.732-.49 1.178s.174.863.49 1.179c.325.323.752.485 1.179.485s.854-.162 1.18-.485l1.314-1.309 1.741-1.3.901.897-1.762 1.754-.002.001-1.339 1.333c-.316.315-.49.732-.49 1.178s.174.863.49 1.179c.325.323.753.485 1.18.485s.855-.162 1.18-.485l3.482-3.467.001-.002 1.01-1-.004-.004c.006-.006.015-.009.022-.015l5.166-5.658 3.471.494a.52.52 0 0 0 .262-.033c.018-.006.033-.015.05-.023.019-.01.039-.015.058-.027l3.213-2.133c.012-.008.018-.021.029-.029.013-.01.029-.014.041-.026l1.271-1.191c.662-.62.753-1.635.212-2.362zM2.13 17.77a.714.714 0 0 1-.558.052.717.717 0 0 1-.213-1.26l1.314-.632.449 1.313-.992.527zm3.498-1.828-1.548.8-.439-1.283 2.027-1.001-.04 1.484zm15.099-6.62a5.79 5.79 0 0 1-.599 2.559l-4.181-1.899a1.863 1.863 0 0 0-.788-1.388l1.464-4.86c2.378.756 4.105 2.974 4.105 5.588zm-11.789 0c0-3.235 2.644-5.867 5.894-5.867.253 0 .5.021.745.052l-1.432 4.754c-.019-.001-.037-.006-.057-.006-1.033 0-1.873.837-1.873 1.867s.84 1.867 1.873 1.867c.694 0 1.294-.383 1.618-.945l3.862 1.755a5.894 5.894 0 0 1-4.737 2.39c-3.25 0-5.894-2.632-5.894-5.867zm5.956.8c0 .441-.362.8-.806.8s-.806-.359-.806-.8c0-.441.362-.8.806-.8s.806.359.806.8zM2.465 25.146a.608.608 0 0 1-.854.001.592.592 0 0 1 0-.844l.962-.958.851.848-.959.955zm3.214 3.734a.608.608 0 0 1-.855.001.592.592 0 0 1 0-.844l.963-.959.852.848-.96.955zm3.481-3.469-.002.001-1.765 1.76-.852-.848 1.763-1.755.002-.001c.04-.04.065-.088.09-.135.007-.014.02-.026.026-.04.017-.041.019-.085.026-.129.003-.025.014-.047.014-.073 0-.036-.013-.07-.02-.106-.006-.032-.006-.065-.019-.095a.55.55 0 0 0-.091-.138c-.01-.012-.014-.027-.025-.038h-.001l-.001-.002-1.607-1.6c-.017-.017-.039-.024-.058-.038a.507.507 0 0 0-.087-.058.515.515 0 0 0-.093-.033.507.507 0 0 0-.103-.02.5.5 0 0 0-.095.005.53.53 0 0 0-.104.02.477.477 0 0 0-.094.045c-.02.011-.042.015-.061.029L4.23 23.486l-.901-.897 2.399-2.386 4.361 4.289-.928.919zm6.819-7.017c-.015-.002-.03.004-.045.003a.556.556 0 0 0-.3.075.492.492 0 0 0-.083.061c-.013.011-.028.017-.04.029l-4.698 5.146-4.328-4.257 2.833-2.818a.534.534 0 0 0-.379-.911v-.001l-2.219.013.028-1.607 3.104.027a6.947 6.947 0 0 0 4.981 2.101c.437 0 .864-.045 1.279-.123.04.032.079.065.13.085l2.41.96.152.758.178.885-3.003-.427zm4.041.178-.313-1.558 1.446-1.08.947 1.257-2.08 1.381zm3.754-2.831-.838.785-.931-1.236.831-.637a.735.735 0 0 1 .543-.143.718.718 0 0 1 .48.284.713.713 0 0 1-.085.947z"/>
      <path d="m13.602 18.544-2.143-2.133a.534.534 0 0 0-.753 0l-2.142 2.133a.537.537 0 0 0 0 .756l2.142 2.133a.536.536 0 0 0 .753 0l2.143-2.133a.535.535 0 0 0 0-.756zm-2.519 1.759-1.387-1.381 1.387-1.381 1.387 1.381-1.387 1.381zM17.164 5.071l-.258 1.036c.071.018 1.738.452 1.738 2.149h1.067c0-2.017-1.666-2.965-2.547-3.185zM19.711 9.322h-1.067v1.067h1.067V9.322z"/>
    </symbol>
    <symbol id="icon-clock" viewBox="0 0 32 32">
      <path d="M31.297 15.301C31.295 6.849 24.442-.002 15.989 0S.686 6.855.688 15.308a15.304 15.304 0 0 0 10.649 14.576.662.662 0 0 0 .529-.065.637.637 0 0 0 .283-.356l3.865-12.25a1.912 1.912 0 1 0-.84-3.635l-5.106-5.107a.637.637 0 0 0-.902.902l5.103 5.109a1.876 1.876 0 0 0 .536 2.309l-3.683 11.673C3.844 25.783.118 17.71 2.799 10.432S13.553-.572 20.831 2.109c7.278 2.681 11.004 10.754 8.323 18.032a14.042 14.042 0 0 1-7.462 7.973l-.398-1.874a.637.637 0 0 0-1.049-.344l-3.837 3.426a.637.637 0 0 0 .231 1.084l4.899 1.564a.638.638 0 0 0 .819-.74l-.391-1.839a15.255 15.255 0 0 0 9.329-14.089zm-15.305-.637a.638.638 0 1 1 0 1.277.638.638 0 0 1 0-1.277zm2.101 14.864 2.184-1.948.603 2.84-2.787-.892z"/>
      <path d="M15.354 3.185V4.46a.638.638 0 1 0 1.276 0V3.185a.638.638 0 0 0-1.276 0zM3.876 14.664a.638.638 0 0 0 0 1.276h1.275a.638.638 0 1 0 0-1.276H3.876zM28.108 15.939a.638.638 0 1 0 0-1.276h-1.275a.638.638 0 0 0 0 1.276h1.275z"/>
    </symbol>
    <symbol id="icon-diagram" viewBox="0 0 32 32">
      <path d="M14.925 14.965h1.066v4.798h-1.066v-4.797zM19.19 17.097h1.066v2.665H19.19v-2.665zM10.661 18.696h1.066v1.066h-1.066v-1.066zM7.463 18.163h1.066v1.599H7.463v-1.599z"/>
      <path d="M1.599 28.291h25.587a1.6 1.6 0 0 0 1.599-1.599V24.56a1.6 1.6 0 0 0-1.599-1.599h-.533V9.668L29.681 6.8a1.608 1.608 0 1 0-.746-.763L26.654 8.2V6.97a1.6 1.6 0 0 0-1.599-1.599H3.733A1.6 1.6 0 0 0 2.134 6.97v15.992h-.533a1.6 1.6 0 0 0-1.599 1.599v2.132a1.6 1.6 0 0 0 1.599 1.599zM30.384 4.837a.533.533 0 1 1 0 1.067.533.533 0 0 1 0-1.067zM3.198 6.969c0-.294.239-.533.533-.533h21.322c.294 0 .533.239.533.533v2.239l-1.066 1.013V8.035a.533.533 0 0 0-.533-.533H4.797a.533.533 0 0 0-.533.533v13.326c0 .294.239.533.533.533h19.19a.533.533 0 0 0 .533-.533v-9.674l1.066-1.01v12.284H3.198V6.969zm4.798 6.93a1.598 1.598 0 1 0 1.107 2.749l1.853.93a.532.532 0 0 0 .636-.123l3.939-4.431 3.872 2.901a.533.533 0 0 0 .686-.039l3.365-3.188v8.131H5.33V8.569h18.124v2.66l-3.771 3.572-3.904-2.927a.533.533 0 0 0-.718.072l-3.993 4.493-1.493-.746c.011-.064.018-.129.02-.193a1.6 1.6 0 0 0-1.599-1.599zm.533 1.599a.533.533 0 1 1-1.067 0 .533.533 0 0 1 1.067 0zm3.198 8.529h5.331v.533a.533.533 0 0 1-.533.533h-4.264a.533.533 0 0 1-.533-.533v-.533zm-10.661.533c0-.294.239-.533.533-.533h9.062v.533a1.6 1.6 0 0 0 1.599 1.599h4.264a1.6 1.6 0 0 0 1.599-1.599v-.533h9.062c.294 0 .533.239.533.533v2.132a.533.533 0 0 1-.533.533H1.598a.533.533 0 0 1-.533-.533V24.56z"/>
    </symbol>
    <symbol id="icon-facebook" viewBox="0 0 32 32">
      <path d="M21.329 5.313h2.921V.225C23.746.156 22.013 0 19.994 0c-4.212 0-7.097 2.649-7.097 7.519V12H8.249v5.688h4.648V32h5.699V17.689h4.46l.708-5.688h-5.169V8.082c.001-1.644.444-2.769 2.735-2.769z"/>
    </symbol>
    <symbol id="icon-instagram" viewBox="0 0 32 32">
      <path d="M31.969 9.408c-.075-1.7-.35-2.869-.744-3.882a7.803 7.803 0 0 0-1.85-2.838A7.867 7.867 0 0 0 26.543.844C25.524.45 24.361.175 22.661.1 20.948.019 20.404 0 16.06 0s-4.888.019-6.595.094c-1.7.075-2.869.35-3.882.744a7.803 7.803 0 0 0-2.838 1.85A7.867 7.867 0 0 0 .901 5.52C.507 6.539.232 7.702.157 9.402c-.081 1.713-.1 2.257-.1 6.601s.019 4.888.094 6.595c.075 1.7.35 2.869.744 3.882a7.895 7.895 0 0 0 1.85 2.838 7.867 7.867 0 0 0 2.832 1.844c1.019.394 2.182.669 3.882.744 1.706.075 2.25.094 6.595.094s4.888-.019 6.595-.094c1.7-.075 2.869-.35 3.882-.744a8.181 8.181 0 0 0 4.682-4.682c.394-1.019.669-2.182.744-3.882.075-1.707.094-2.25.094-6.595s-.006-4.888-.081-6.595zm-2.882 13.065c-.069 1.563-.331 2.407-.55 2.969a5.31 5.31 0 0 1-3.038 3.038c-.563.219-1.413.481-2.969.55-1.688.075-2.194.094-6.464.094s-4.782-.019-6.464-.094c-1.563-.069-2.407-.331-2.969-.55a4.926 4.926 0 0 1-1.838-1.194 4.974 4.974 0 0 1-1.194-1.838c-.219-.563-.481-1.413-.55-2.969-.075-1.688-.094-2.194-.094-6.464s.019-4.782.094-6.464c.069-1.563.331-2.407.55-2.969a4.868 4.868 0 0 1 1.2-1.838A4.974 4.974 0 0 1 6.639 3.55c.563-.219 1.413-.481 2.969-.55 1.688-.075 2.194-.094 6.464-.094 4.276 0 4.782.019 6.464.094 1.563.069 2.407.331 2.969.55a4.914 4.914 0 0 1 1.838 1.194 4.974 4.974 0 0 1 1.194 1.838c.219.563.481 1.413.55 2.969.075 1.688.094 2.194.094 6.464s-.019 4.77-.094 6.458z"/>
      <path d="M16.059 7.783c-4.538 0-8.22 3.682-8.22 8.22s3.682 8.22 8.22 8.22 8.22-3.682 8.22-8.22-3.682-8.22-8.22-8.22zm0 13.552a5.333 5.333 0 0 1 0-10.664 5.333 5.333 0 0 1 0 10.664zM26.524 7.458a1.919 1.919 0 1 1-3.838 0 1.919 1.919 0 0 1 3.838 0z"/>
    </symbol>
    <symbol id="icon-linkedin" viewBox="0 0 32 32">
      <path d="M31.992 32v-.001H32V20.263c0-5.741-1.236-10.164-7.948-10.164-3.227 0-5.392 1.771-6.276 3.449h-.093v-2.913h-6.364v21.364h6.627V21.42c0-2.785.528-5.479 3.977-5.479 3.399 0 3.449 3.179 3.449 5.657v10.401h6.62zM.528 10.636h6.635V32H.528V10.636zM3.843 0C1.722 0 0 1.721 0 3.843s1.721 3.879 3.843 3.879c2.121 0 3.843-1.757 3.843-3.879A3.846 3.846 0 0 0 3.843 0z"/>
    </symbol>
    <symbol id="icon-Logo" viewBox="0 0 153 32">
      <path d="M7.608 7.675h3.072l1.944 5.64 1.968-5.64h3.048l-2.928 7.752 2.16 5.424 4.824-13.224h3.6l-6.816 17.04h-2.856l-3-7.152-2.976 7.152H6.792L0 7.627h3.552L8.4 20.851l2.112-5.424-2.904-7.752zm31.986 14.088v2.904H27.762V7.627h11.616v2.904h-8.304v4.104h7.176v2.688h-7.176v4.44h8.52zm17.03-1.488c0 .96-.248 1.768-.744 2.424-.496.64-1.168 1.128-2.016 1.464-.832.336-1.744.504-2.736.504h-8.232V7.627h9.12c.8 0 1.488.216 2.064.648.592.416 1.04.96 1.344 1.632a4.662 4.662 0 0 1-.144 4.392 3.784 3.784 0 0 1-1.824 1.632c.976.288 1.744.808 2.304 1.56.576.752.864 1.68.864 2.784zm-3.336-.624c0-.432-.088-.816-.264-1.152a1.993 1.993 0 0 0-.72-.816 1.676 1.676 0 0 0-1.008-.312h-5.088v4.488h4.92c.4 0 .76-.096 1.08-.288.336-.208.6-.48.792-.816s.288-.704.288-1.104zm-7.08-9.192v4.296h4.416c.368 0 .704-.088 1.008-.264s.544-.424.72-.744c.192-.32.288-.704.288-1.152 0-.432-.088-.808-.264-1.128a1.785 1.785 0 0 0-.672-.744 1.685 1.685 0 0 0-.936-.264h-4.56zM70.595 12.091c-.112-.112-.32-.264-.624-.456a6.127 6.127 0 0 0-1.08-.552 9.789 9.789 0 0 0-1.368-.456c-.496-.144-1-.216-1.512-.216-.896 0-1.576.168-2.04.504-.448.336-.672.808-.672 1.416 0 .464.144.832.432 1.104s.72.504 1.296.696c.576.192 1.296.4 2.16.624 1.12.272 2.088.608 2.904 1.008.832.384 1.464.896 1.896 1.536.448.624.672 1.456.672 2.496 0 .912-.168 1.696-.504 2.352-.336.64-.8 1.16-1.392 1.56s-1.264.696-2.016.888c-.752.176-1.552.264-2.4.264s-1.696-.088-2.544-.264a13.982 13.982 0 0 1-2.448-.744 11.723 11.723 0 0 1-2.16-1.2l1.464-2.856c.144.144.4.336.768.576.368.224.816.456 1.344.696.528.224 1.104.416 1.728.576s1.256.24 1.896.24c.896 0 1.576-.152 2.04-.456s.696-.736.696-1.296c0-.512-.184-.912-.552-1.2s-.88-.536-1.536-.744a48.807 48.807 0 0 0-2.328-.72c-1.072-.304-1.968-.64-2.688-1.008-.72-.384-1.256-.864-1.608-1.44s-.528-1.296-.528-2.16c0-1.168.272-2.144.816-2.928.56-.8 1.312-1.4 2.256-1.8.944-.416 1.992-.624 3.144-.624.8 0 1.552.088 2.256.264.72.176 1.392.408 2.016.696s1.184.6 1.68.936l-1.464 2.688zm18.03-1.56h-5.448v14.136h-3.288V10.531h-5.448V7.627h14.184v2.904zm10.06 14.256c-1.36 0-2.52-.224-3.48-.672a6.232 6.232 0 0 1-2.304-1.896c-.576-.8-1-1.704-1.272-2.712a12.381 12.381 0 0 1-.408-3.192V7.627h3.312v8.688c0 .704.064 1.392.192 2.064.144.656.376 1.248.696 1.776s.744.944 1.272 1.248c.528.304 1.184.456 1.968.456.8 0 1.464-.152 1.992-.456.544-.32.968-.744 1.272-1.272.32-.528.552-1.12.696-1.776a9.709 9.709 0 0 0 .216-2.04V7.627h3.288v8.688c0 1.168-.144 2.264-.432 3.288a7.522 7.522 0 0 1-1.32 2.712c-.592.768-1.36 1.376-2.304 1.824-.944.432-2.072.648-3.384.648zm11.496-.12V7.627h6.192c1.856 0 3.408.384 4.656 1.152a7.132 7.132 0 0 1 2.808 3.072c.624 1.28.936 2.704.936 4.272 0 1.728-.344 3.232-1.032 4.512s-1.664 2.272-2.928 2.976c-1.248.704-2.728 1.056-4.44 1.056h-6.192zm11.256-8.544c0-1.104-.2-2.072-.6-2.904-.4-.848-.976-1.504-1.728-1.968-.752-.48-1.664-.72-2.736-.72h-2.88v11.232h2.88c1.088 0 2.008-.24 2.76-.72a4.665 4.665 0 0 0 1.704-2.016c.4-.864.6-1.832.6-2.904zm6.644 8.544V7.627h3.312v17.04h-3.312zm14.859.12c-1.248 0-2.384-.24-3.408-.72a8.279 8.279 0 0 1-2.616-1.944 9.514 9.514 0 0 1-1.68-2.784c-.4-1.04-.6-2.104-.6-3.192 0-1.136.208-2.216.624-3.24a9.318 9.318 0 0 1 1.752-2.76 8.242 8.242 0 0 1 2.64-1.92c1.024-.48 2.144-.72 3.36-.72 1.232 0 2.352.248 3.36.744 1.024.496 1.896 1.16 2.616 1.992s1.28 1.76 1.68 2.784c.4 1.024.6 2.08.6 3.168 0 1.12-.208 2.2-.624 3.24a9.09 9.09 0 0 1-1.752 2.76 8.069 8.069 0 0 1-2.64 1.896c-1.008.464-2.112.696-3.312.696zm-4.944-8.64c0 .736.112 1.448.336 2.136s.544 1.304.96 1.848c.432.528.952.952 1.56 1.272.624.304 1.328.456 2.112.456.8 0 1.512-.16 2.136-.48a4.803 4.803 0 0 0 1.56-1.32c.416-.56.728-1.176.936-1.848a6.633 6.633 0 0 0 .336-2.064c0-.736-.12-1.44-.36-2.112a5.575 5.575 0 0 0-.984-1.824 4.314 4.314 0 0 0-1.56-1.272c-.608-.32-1.296-.48-2.064-.48-.816 0-1.536.168-2.16.504-.608.32-1.12.752-1.536 1.296s-.736 1.152-.96 1.824a6.941 6.941 0 0 0-.312 2.064z"/>
    </symbol>
    <symbol id="icon-Studio" viewBox="0 0 160 32">
      <path d="M20.448 9.298c-.192-.192-.549-.453-1.07-.782-.494-.329-1.111-.645-1.851-.946a16.822 16.822 0 0 0-2.345-.782 9.243 9.243 0 0 0-2.592-.37c-1.536 0-2.702.288-3.497.864-.768.576-1.152 1.385-1.152 2.427 0 .795.247 1.426.741 1.893s1.234.864 2.222 1.193c.987.329 2.222.686 3.703 1.07 1.92.466 3.579 1.042 4.978 1.728 1.426.658 2.51 1.536 3.25 2.633.768 1.07 1.152 2.496 1.152 4.279 0 1.563-.288 2.907-.864 4.032-.576 1.097-1.371 1.989-2.386 2.674s-2.167 1.193-3.456 1.522c-1.289.302-2.661.453-4.114.453s-2.907-.151-4.361-.453a24.038 24.038 0 0 1-4.197-1.275 20.136 20.136 0 0 1-3.703-2.057l2.51-4.896c.247.247.686.576 1.317.987.631.384 1.399.782 2.304 1.193.905.384 1.893.713 2.962.987s2.153.411 3.25.411c1.536 0 2.702-.261 3.497-.782s1.193-1.262 1.193-2.222c0-.878-.315-1.563-.946-2.057s-1.509-.919-2.633-1.275a84.03 84.03 0 0 0-3.991-1.234c-1.838-.521-3.374-1.097-4.608-1.728-1.234-.658-2.153-1.481-2.757-2.469s-.905-2.222-.905-3.703c0-2.002.466-3.675 1.399-5.019.96-1.371 2.249-2.4 3.867-3.086 1.618-.713 3.415-1.07 5.39-1.07 1.371 0 2.661.151 3.867.453 1.234.302 2.386.699 3.456 1.193s2.03 1.029 2.88 1.605l-2.51 4.608zm30.91-2.674h-9.339v24.233h-5.637V6.624h-9.339V1.646h24.315v4.978zm17.245 24.439c-2.331 0-4.32-.384-5.966-1.152-1.618-.795-2.935-1.879-3.95-3.25-.987-1.371-1.714-2.921-2.181-4.649a21.232 21.232 0 0 1-.699-5.472V1.646h5.678V16.54c0 1.207.11 2.386.329 3.538.247 1.125.645 2.139 1.193 3.045s1.275 1.618 2.181 2.139c.905.521 2.03.782 3.374.782 1.371 0 2.51-.261 3.415-.782a5.94 5.94 0 0 0 2.181-2.181 9.927 9.927 0 0 0 1.193-3.045c.247-1.152.37-2.318.37-3.497V1.645h5.637v14.894c0 2.002-.247 3.881-.741 5.637-.466 1.755-1.221 3.305-2.263 4.649-1.015 1.317-2.331 2.359-3.95 3.127-1.618.741-3.552 1.111-5.801 1.111zm19.707-.206V1.646h10.615c3.182 0 5.842.658 7.982 1.975 2.139 1.289 3.744 3.045 4.814 5.266 1.07 2.194 1.605 4.635 1.605 7.323 0 2.962-.59 5.541-1.769 7.735s-2.853 3.895-5.019 5.102c-2.139 1.207-4.677 1.81-7.611 1.81H88.312zm19.296-14.647c0-1.893-.343-3.552-1.029-4.978-.686-1.454-1.673-2.578-2.962-3.374-1.289-.823-2.853-1.234-4.69-1.234h-4.937v19.255h4.937c1.865 0 3.442-.411 4.731-1.234 1.289-.85 2.263-2.002 2.921-3.456.686-1.481 1.029-3.141 1.029-4.978zm11.389 14.647V1.646h5.678v29.211h-5.678zm25.473.206c-2.139 0-4.087-.411-5.842-1.234a14.198 14.198 0 0 1-4.485-3.333 16.313 16.313 0 0 1-2.88-4.773 15.12 15.12 0 0 1-1.029-5.472c0-1.947.357-3.799 1.07-5.554a15.986 15.986 0 0 1 3.003-4.731 14.12 14.12 0 0 1 4.526-3.291c1.755-.823 3.675-1.234 5.76-1.234 2.112 0 4.032.425 5.76 1.275 1.755.85 3.25 1.989 4.485 3.415s2.194 3.017 2.88 4.773a14.795 14.795 0 0 1 1.029 5.431c0 1.92-.357 3.771-1.07 5.554a15.573 15.573 0 0 1-3.003 4.731 13.83 13.83 0 0 1-4.526 3.25c-1.728.795-3.621 1.193-5.678 1.193zm-8.475-14.812c0 1.262.192 2.482.576 3.662s.933 2.235 1.646 3.168a8.602 8.602 0 0 0 2.674 2.181c1.07.521 2.277.782 3.621.782 1.371 0 2.592-.274 3.662-.823a8.224 8.224 0 0 0 2.674-2.263 10.473 10.473 0 0 0 1.605-3.168 11.37 11.37 0 0 0 .576-3.538c0-1.262-.206-2.469-.617-3.621a9.553 9.553 0 0 0-1.687-3.127 7.404 7.404 0 0 0-2.674-2.181c-1.042-.549-2.222-.823-3.538-.823-1.399 0-2.633.288-3.703.864-1.042.549-1.92 1.289-2.633 2.222s-1.262 1.975-1.646 3.127a11.883 11.883 0 0 0-.535 3.538z"/>
    </symbol>
    <symbol id="icon-twitter" viewBox="0 0 32 32">
      <path d="M32 6.078c-1.19.522-2.458.868-3.78 1.036a6.523 6.523 0 0 0 2.886-3.626 13.11 13.11 0 0 1-4.16 1.588A6.574 6.574 0 0 0 22.154 3c-3.632 0-6.556 2.948-6.556 6.562 0 .52.044 1.02.152 1.496-5.454-.266-10.28-2.88-13.522-6.862a6.605 6.605 0 0 0-.898 3.316 6.57 6.57 0 0 0 2.914 5.452 6.479 6.479 0 0 1-2.964-.808v.072c0 3.188 2.274 5.836 5.256 6.446a6.548 6.548 0 0 1-1.72.216 5.8 5.8 0 0 1-1.242-.112c.85 2.598 3.262 4.508 6.13 4.57a13.182 13.182 0 0 1-8.134 2.798c-.538 0-1.054-.024-1.57-.09A18.469 18.469 0 0 0 10.064 29c12.072 0 18.672-10 18.672-18.668 0-.29-.01-.57-.024-.848A13.087 13.087 0 0 0 32 6.078z"/>
    </symbol>
    <symbol id="icon-Web" viewBox="0 0 98 32">
      <path d="M13.042 1.728h5.266l3.333 9.669 3.374-9.669h5.225l-5.019 13.289 3.703 9.298 8.27-22.67h6.171L31.68 30.856h-4.896l-5.143-12.261-5.102 12.261h-4.896L0 1.645h6.089l8.311 22.67 3.621-9.298-4.978-13.289zm54.833 24.151v4.978H47.592V1.646h19.913v4.978H53.27v7.035h12.302v4.608H53.27v7.611h14.606zm29.194-2.551c0 1.646-.425 3.031-1.275 4.155-.85 1.097-2.002 1.934-3.456 2.51-1.426.576-2.99.864-4.69.864H73.536V1.646H89.17c1.371 0 2.551.37 3.538 1.111a6.755 6.755 0 0 1 2.304 2.798 7.967 7.967 0 0 1 .823 3.538c0 1.399-.357 2.729-1.07 3.991s-1.755 2.194-3.127 2.798c1.673.494 2.99 1.385 3.95 2.674.987 1.289 1.481 2.88 1.481 4.773zm-5.719-1.07c0-.741-.151-1.399-.453-1.975-.302-.603-.713-1.07-1.234-1.399-.494-.357-1.07-.535-1.728-.535h-8.722v7.694h8.434c.686 0 1.303-.165 1.851-.494.576-.357 1.029-.823 1.358-1.399s.494-1.207.494-1.893zM79.213 6.501v7.365h7.57c.631 0 1.207-.151 1.728-.453s.933-.727 1.234-1.275c.329-.549.494-1.207.494-1.975 0-.741-.151-1.385-.453-1.934a3.048 3.048 0 0 0-1.152-1.275c-.466-.302-1.001-.453-1.605-.453h-7.817z"/>
    </symbol>        
    <symbol id="icon-email" viewBox="0 0 24 32">
      <path d="M20 8h-16c-1.1 0-1.99 0.9-1.99 2l-0.010 12c0 1.1 0.9 2 2 2h16c1.1 0 2-0.9 2-2v-12c0-1.1-0.9-2-2-2zM19.6 12.25l-7.070 4.42c-0.32 0.2-0.74 0.2-1.060 0l-7.070-4.42c-0.25-0.16-0.4-0.43-0.4-0.72 0-0.67 0.73-1.070 1.3-0.72l6.7 4.19 6.7-4.19c0.57-0.35 1.3 0.050 1.3 0.72 0 0.29-0.15 0.56-0.4 0.72z"></path>
    </symbol>    
    <symbol id="icon-phone" viewBox="0 0 24 32">
      <path d="M19.635 18.487l-2.451-0.28c-0.589-0.067-1.167 0.135-1.582 0.55l-1.775 1.775c-2.731-1.389-4.969-3.618-6.359-6.359l1.785-1.785c0.415-0.415 0.618-0.994 0.55-1.582l-0.28-2.432c-0.116-0.975-0.936-1.708-1.92-1.708h-1.669c-1.090 0-1.997 0.907-1.93 1.997 0.511 8.24 7.102 14.821 15.332 15.332 1.090 0.068 1.997-0.839 1.997-1.93v-1.669c0.010-0.975-0.724-1.795-1.698-1.911z"></path>
    </symbol>
    <symbol id="icon-close" viewBox="0 0 32 32">
      <path d="M32 3.224l-3.224-3.224-12.776 12.776-12.776-12.776-3.224 3.224 12.776 12.776-12.776 12.776 3.224 3.224 12.776-12.776 12.776 12.776 3.224-3.224-12.776-12.776 12.776-12.776z"></path>
    </symbol>
    <symbol id="icon-person" viewBox="0 0 32 32">
      <path d="M16 16c2.946 0 5.333-2.388 5.333-5.333s-2.388-5.333-5.333-5.333v0c-2.946 0-5.333 2.388-5.333 5.333s2.388 5.333 5.333 5.333v0zM16 18.667c-3.561 0-10.667 1.787-10.667 5.333v1.333c0 0.732 0.599 1.333 1.333 1.333h18.667c0.732 0 1.333-0.601 1.333-1.333v-1.333c0-3.547-7.108-5.333-10.667-5.333z"></path>
    </symbol>
    <symbol id="icon-chek" viewBox="0 0 40 32">
      <path d="M33.784 1.020c0.659-0.637 1.558-1.030 2.548-1.030 2.007 0 3.637 1.611 3.668 3.611l0 0.003c0.001 0.028 0.001 0.061 0.001 0.095 0 0.965-0.368 1.844-0.972 2.504l0.003-0.003-19.576 24.616c-0.674 0.728-1.635 1.182-2.702 1.182-0.495 0-0.967-0.098-1.398-0.275l0.024 0.009c-0.477-0.197-0.884-0.473-1.224-0.816l-0-0-12.984-13.052c-0.724-0.677-1.175-1.638-1.175-2.705 0-0.501 0.1-0.98 0.28-1.416l-0.009 0.025c0.564-1.367 1.887-2.312 3.43-2.312 0.018 0 0.035 0 0.053 0l-0.003-0c1.038 0.019 1.967 0.467 2.622 1.174l0.002 0.002 10.276 10.328 17.040-21.832c0.032-0.039 0.065-0.074 0.1-0.108l-0.004-0z"></path>
    </symbol>
    <symbol id="icon-telegram" viewBox="0 0 32 32">
      <path d="M32 2.667l-32 15 10.227 3.156 15.773-12.323-11.997 13.488 0.009 0.004-0.012-0.004v7.345l5.735-5.576 7.267 2.243 4.999-23.333z"></path>
    </symbol>
    <symbol id="icon-header-menu-btn" viewBox="0 0 32 32">
      <path d="M4.799 8.001c0-0.424 0.169-0.831 0.469-1.131s0.707-0.469 1.131-0.469h19.2c0.424 0 0.831 0.169 1.131 0.469s0.469 0.707 0.469 1.131-0.169 0.831-0.469 1.131c-0.3 0.3-0.707 0.469-1.131 0.469h-19.2c-0.424 0-0.831-0.169-1.131-0.469s-0.469-0.707-0.469-1.131z"></path>
      <path d="M4.799 16.001c0-0.424 0.169-0.831 0.469-1.131s0.707-0.469 1.131-0.469h19.2c0.424 0 0.831 0.169 1.131 0.469s0.469 0.707 0.469 1.131c0 0.424-0.169 0.831-0.469 1.131s-0.707 0.469-1.131 0.469h-19.2c-0.424 0-0.831-0.169-1.131-0.469s-0.469-0.707-0.469-1.131z"></path>
      <path d="M4.799 24.001c0-0.424 0.169-0.831 0.469-1.131s0.707-0.469 1.131-0.469h19.2c0.424 0 0.831 0.169 1.131 0.469s0.469 0.707 0.469 1.131c0 0.424-0.169 0.831-0.469 1.131s-0.707 0.469-1.131 0.469h-19.2c-0.424 0-0.831-0.169-1.131-0.469s-0.469-0.707-0.469-1.131z"></path>
    </symbol>
  </defs>
</svg>
