<svg aria-hidden="true" style="position: absolute; width: 0; height: 0; overflow: hidden;" version="1.1" xmlns="http://www.w3.org/2000/svg" xmlns:xlink="http://www.w3.org/1999/xlink">
<defs>
<symbol id="icon-antenna" viewBox="0 0 32 32">
<path d="M30.773 22.098l-8.443-8.505 0.937-4.615c0.242 0.094 0.499 0.144 0.758 0.146h0.006c1.192 0.014 2.17-0.941 2.184-2.133s-0.941-2.17-2.133-2.184c-1.192-0.014-2.17 0.941-2.184 2.133-0.003 0.255 0.039 0.509 0.125 0.749l-4.96 0.605-8.091-8.133c-0.099-0.101-0.235-0.159-0.377-0.16-0.14 0.001-0.274 0.056-0.373 0.155l-1.513 1.504c-0.208 0.208-0.208 0.546 0 0.754l0.814 0.826c-3.153 5.798-2.129 12.978 2.519 17.663 0.043 0.041 0.092 0.074 0.146 0.098-0.034 0.18-0.051 0.364-0.052 0.547v6.187h-6.4c-1.472 0.002-2.665 1.195-2.667 2.667v1.067c0 0.295 0.239 0.533 0.533 0.533h24.533c0.295 0 0.533-0.239 0.533-0.533v-1.067c-0.002-1.472-1.195-2.665-2.667-2.667h-6.4v-2.742c1.003 0.21 2.024 0.317 3.049 0.32 2.458-0.003 4.877-0.615 7.040-1.783l0.818 0.823c0.099 0.101 0.235 0.159 0.377 0.16 0.14-0.001 0.274-0.056 0.373-0.155l1.513-1.504c0.208-0.208 0.208-0.546 0-0.754zM23.28 6.233c0.418-0.415 1.093-0.414 1.509 0.004s0.414 1.093-0.004 1.508c-0.2 0.199-0.47 0.31-0.752 0.31h-0.003c-0.589-0.003-1.064-0.483-1.061-1.072 0.002-0.282 0.115-0.552 0.314-0.751h-0.002zM22.024 9.738l-0.598 2.946-1.175-1.182 1.774-1.763zM21.419 8.836l-1.92 1.909-1.485-1.493 3.405-0.415zM24.004 28.8c0.884 0 1.6 0.716 1.6 1.6v0.533h-23.467v-0.533c0-0.884 0.716-1.6 1.6-1.6h20.267zM16.537 26.667v1.067h-5.333v-1.067h5.333zM11.204 25.6v-4.053c0-1.294 1.196-2.347 2.667-2.347s2.667 1.053 2.667 2.347v4.053h-5.333zM17.604 23.904v-2.357c0-1.882-1.675-3.413-3.733-3.413-1.331-0.020-2.576 0.657-3.281 1.786-4.058-4.274-4.971-10.645-2.279-15.887l18.602 18.708c-2.872 1.461-6.165 1.873-9.309 1.163zM28.893 23.22l-21.057-21.181 0.755-0.752 7.935 7.98c0.004 0 0.006 0.007 0.010 0.010l13.115 13.191-0.757 0.752z"></path>
<path d="M13.876 20.267h-0.005c-0.884-0.001-1.601 0.714-1.602 1.598s0.714 1.601 1.598 1.602h0.005c0.884 0.001 1.601-0.714 1.602-1.598s-0.714-1.601-1.598-1.602zM14.249 22.245c-0.1 0.1-0.236 0.156-0.378 0.155-0.295-0.002-0.532-0.242-0.531-0.536 0.001-0.141 0.057-0.276 0.157-0.375s0.233-0.154 0.373-0.155c0.295 0.002 0.532 0.242 0.531 0.536-0.001 0.141-0.057 0.276-0.157 0.375h0.005z"></path>
</symbol>
<symbol id="icon-astronaut" viewBox="0 0 32 32">
<path d="M31.974 4.524c-0.063-0.193-0.229-0.333-0.43-0.363l-1.91-0.278-0.855-1.731c-0.179-0.365-0.777-0.365-0.956 0l-0.855 1.731-1.91 0.278c-0.201 0.029-0.367 0.17-0.431 0.363-0.062 0.193-0.011 0.405 0.135 0.547l1.383 1.348-0.326 1.903c-0.034 0.2 0.048 0.402 0.212 0.522 0.166 0.121 0.382 0.135 0.562 0.040l1.709-0.899 1.709 0.899c0.078 0.041 0.164 0.061 0.249 0.061 0.11 0 0.221-0.034 0.314-0.102 0.164-0.119 0.246-0.322 0.212-0.522l-0.326-1.903 1.383-1.348c0.145-0.142 0.197-0.354 0.135-0.547zM29.511 5.851c-0.125 0.122-0.183 0.299-0.153 0.472l0.191 1.114-1-0.526c-0.078-0.041-0.163-0.061-0.249-0.061s-0.17 0.020-0.249 0.061l-1.001 0.526 0.191-1.114c0.030-0.173-0.028-0.349-0.153-0.472l-0.81-0.789 1.119-0.163c0.174-0.025 0.324-0.134 0.402-0.292l0.5-1.013 0.5 1.013c0.078 0.157 0.228 0.267 0.402 0.292l1.119 0.163-0.809 0.789z"></path>
<path d="M26.133 20.522h-1.067v1.067h1.067v-1.067z"></path>
<path d="M26.133 22.656h-1.067v1.067h1.067v-1.067z"></path>
<path d="M27.2 21.589h-1.067v1.067h1.067v-1.067z"></path>
<path d="M25.067 21.589h-1.067v1.067h1.067v-1.067z"></path>
<path d="M22.4 26.389h-1.067v1.067h1.067v-1.067z"></path>
<path d="M22.4 28.522h-1.067v1.067h1.067v-1.067z"></path>
<path d="M23.467 27.456h-1.067v1.067h1.067v-1.067z"></path>
<path d="M21.333 27.456h-1.067v1.067h1.067v-1.067z"></path>
<path d="M16 24.256h-1.067v1.067h1.067v-1.067z"></path>
<path d="M16 26.389h-1.067v1.067h1.067v-1.067z"></path>
<path d="M17.067 25.322h-1.067v1.067h1.067v-1.067z"></path>
<path d="M14.933 25.322h-1.067v1.067h1.067v-1.067z"></path>
<path d="M5.867 6.122h-1.067v1.067h1.067v-1.067z"></path>
<path d="M5.867 8.255h-1.067v1.067h1.067v-1.067z"></path>
<path d="M6.933 7.189h-1.067v1.067h1.067v-1.067z"></path>
<path d="M4.8 7.189h-1.067v1.067h1.067v-1.067z"></path>
<path d="M24.715 14.159c-0.287-0.388-0.709-0.637-1.188-0.705-0.481-0.068-0.956 0.058-1.34 0.352l-1.252 0.96-1.898 1.417-1.358-0.541c2.421-1.086 4.114-3.508 4.114-6.32 0-3.823-3.123-6.933-6.961-6.933s-6.961 3.11-6.961 6.933c0 1.386 0.414 2.674 1.12 3.758l-2.764-0.024c-0.002 0-0.003 0-0.005 0-0.009 0-0.015 0.004-0.023 0.005-0.053 0.002-0.105 0.013-0.155 0.031-0.013 0.005-0.026 0.008-0.038 0.013-0.006 0.003-0.013 0.003-0.019 0.006l-3.233 1.596c-0.001 0-0.001 0-0.001 0.001l-1.893 0.911c-0.021 0.009-0.042 0.021-0.063 0.035-0.755 0.502-1.012 1.489-0.598 2.295 0.22 0.429 0.595 0.745 1.056 0.889 0.178 0.055 0.359 0.083 0.539 0.083 0.29 0 0.577-0.071 0.839-0.211l1.388-0.738 2.264-1.169 1.357-0.008-5.442 5.416c-0.001 0.001-0.001 0.001-0.002 0.001l-1.339 1.333c-0.316 0.315-0.49 0.732-0.49 1.178s0.174 0.863 0.49 1.179c0.325 0.323 0.752 0.485 1.179 0.485s0.854-0.162 1.18-0.485l1.314-1.309 1.741-1.3 0.901 0.897-1.762 1.754c-0 0.001-0.001 0.001-0.002 0.001l-1.339 1.333c-0.316 0.315-0.49 0.732-0.49 1.178s0.174 0.863 0.49 1.179c0.325 0.323 0.753 0.485 1.18 0.485s0.855-0.162 1.18-0.485l3.482-3.467c0.001-0.001 0.001-0.001 0.001-0.002l1.010-1-0.004-0.004c0.006-0.006 0.015-0.009 0.022-0.015l5.166-5.658 3.471 0.494c0.025 0.004 0.050 0.005 0.075 0.005 0.065 0 0.127-0.015 0.187-0.038 0.018-0.006 0.033-0.015 0.050-0.023 0.019-0.010 0.039-0.015 0.058-0.027l3.213-2.133c0.012-0.008 0.018-0.021 0.029-0.029 0.013-0.010 0.029-0.014 0.041-0.026l1.271-1.191c0.662-0.62 0.753-1.635 0.212-2.362zM2.13 17.77c-0.173 0.093-0.37 0.111-0.558 0.052-0.187-0.058-0.338-0.186-0.427-0.358-0.161-0.314-0.068-0.695 0.214-0.902l1.314-0.632 0.449 1.313-0.992 0.527zM5.628 15.942l-1.548 0.8-0.439-1.283 2.027-1.001-0.040 1.484zM20.727 9.322c0 0.918-0.219 1.785-0.599 2.559l-4.181-1.899c-0.044-0.573-0.341-1.075-0.788-1.388l1.464-4.86c2.378 0.756 4.105 2.974 4.105 5.588zM8.938 9.322c0-3.235 2.644-5.867 5.894-5.867 0.253 0 0.5 0.021 0.745 0.052l-1.432 4.754c-0.019-0.001-0.037-0.006-0.057-0.006-1.033 0-1.873 0.837-1.873 1.867s0.84 1.867 1.873 1.867c0.694 0 1.294-0.383 1.618-0.945l3.862 1.755c-1.075 1.446-2.795 2.39-4.737 2.39-3.25 0-5.894-2.632-5.894-5.867zM14.894 10.122c0 0.441-0.362 0.8-0.806 0.8s-0.806-0.359-0.806-0.8c0-0.441 0.362-0.8 0.806-0.8s0.806 0.359 0.806 0.8zM2.465 25.146c-0.236 0.234-0.619 0.234-0.854 0.001-0.114-0.114-0.176-0.263-0.176-0.423s0.062-0.309 0.176-0.421l0.962-0.958 0.851 0.848-0.959 0.955zM5.679 28.88c-0.236 0.234-0.619 0.235-0.855 0.001-0.114-0.114-0.176-0.263-0.176-0.423s0.062-0.309 0.176-0.421l0.963-0.959 0.852 0.848-0.96 0.955zM9.16 25.411c-0.001 0-0.001 0-0.002 0.001l-1.765 1.76-0.852-0.848 1.763-1.755c0 0 0 0 0-0s0.001-0.001 0.002-0.001c0.040-0.040 0.065-0.088 0.090-0.135 0.007-0.014 0.020-0.026 0.026-0.040 0.017-0.041 0.019-0.085 0.026-0.129 0.003-0.025 0.014-0.047 0.014-0.073 0-0.036-0.013-0.070-0.020-0.106-0.006-0.032-0.006-0.065-0.019-0.095-0.020-0.050-0.055-0.094-0.091-0.138-0.010-0.012-0.014-0.027-0.025-0.038 0 0 0 0-0.001 0s-0.001-0.002-0.001-0.002l-1.607-1.6c-0.017-0.017-0.039-0.024-0.058-0.038-0.028-0.022-0.055-0.042-0.087-0.058-0.030-0.015-0.061-0.024-0.093-0.033-0.034-0.010-0.067-0.017-0.103-0.020-0.033-0.002-0.063 0.001-0.095 0.005-0.036 0.004-0.069 0.009-0.104 0.020-0.034 0.011-0.063 0.027-0.094 0.045-0.020 0.011-0.042 0.015-0.061 0.029l-1.773 1.324-0.901-0.897 2.399-2.386 4.361 4.289-0.928 0.919zM15.979 18.394c-0.015-0.002-0.030 0.004-0.045 0.003-0.039-0.002-0.076 0.001-0.115 0.007-0.030 0.005-0.059 0.011-0.088 0.021-0.034 0.012-0.065 0.028-0.097 0.047-0.030 0.018-0.057 0.037-0.083 0.061-0.013 0.011-0.028 0.017-0.040 0.029l-4.698 5.146-4.328-4.257 2.833-2.818c0.209-0.208 0.21-0.546 0.002-0.755-0.105-0.105-0.243-0.157-0.381-0.156v-0.001l-2.219 0.013 0.028-1.607 3.104 0.027c1.265 1.294 3.029 2.101 4.981 2.101 0.437 0 0.864-0.045 1.279-0.123 0.040 0.032 0.079 0.065 0.13 0.085l2.41 0.96 0.152 0.758 0.178 0.885-3.003-0.427zM20.020 18.572l-0.313-1.558 1.446-1.080 0.947 1.257-2.080 1.381zM23.774 15.741l-0.838 0.785-0.931-1.236 0.831-0.637c0.155-0.119 0.351-0.168 0.543-0.143 0.193 0.027 0.364 0.128 0.48 0.284 0.217 0.292 0.18 0.699-0.085 0.947z"></path>
<path d="M13.602 18.544l-2.143-2.133c-0.207-0.207-0.545-0.207-0.753 0l-2.142 2.133c-0.1 0.101-0.157 0.236-0.157 0.378s0.056 0.278 0.157 0.378l2.142 2.133c0.104 0.103 0.241 0.155 0.377 0.155s0.273-0.052 0.376-0.155l2.143-2.133c0.1-0.1 0.157-0.236 0.157-0.378s-0.057-0.278-0.157-0.378zM11.083 20.303l-1.387-1.381 1.387-1.381 1.387 1.381-1.387 1.381z"></path>
<path d="M17.164 5.071l-0.258 1.036c0.071 0.018 1.738 0.452 1.738 2.149h1.067c-0-2.017-1.666-2.965-2.547-3.185z"></path>
<path d="M19.711 9.322h-1.067v1.067h1.067v-1.067z"></path>
</symbol>
<symbol id="icon-clock" viewBox="0 0 32 32">
<path d="M31.297 15.301c-0.002-8.452-6.855-15.303-15.308-15.301s-15.303 6.855-15.301 15.308c0.001 6.658 4.307 12.551 10.649 14.576 0.061 0.019 0.124 0.029 0.187 0.029 0.121-0 0.239-0.032 0.342-0.094 0.135-0.080 0.236-0.207 0.283-0.356l3.865-12.25c1.057-0.005 1.909-0.866 1.903-1.923s-0.866-1.909-1.923-1.903c-0.284 0.001-0.565 0.067-0.82 0.191l-5.106-5.107c-0.253-0.245-0.657-0.238-0.902 0.016-0.239 0.247-0.239 0.639 0 0.886l5.103 5.109c-0.392 0.799-0.168 1.764 0.536 2.309l-3.683 11.673c-7.278-2.681-11.004-10.754-8.323-18.032s10.754-11.004 18.032-8.323c7.278 2.681 11.004 10.754 8.323 18.032-1.31 3.556-4.001 6.431-7.462 7.973l-0.398-1.874c-0.073-0.345-0.411-0.565-0.756-0.492-0.109 0.023-0.209 0.074-0.293 0.148l-3.837 3.426c-0.263 0.234-0.287 0.637-0.052 0.9 0.076 0.085 0.174 0.149 0.283 0.184l4.899 1.564c0.335 0.108 0.694-0.077 0.802-0.412 0.034-0.106 0.040-0.219 0.017-0.328l-0.391-1.839c5.664-2.388 9.342-7.942 9.329-14.089zM15.992 14.664c0.352 0 0.638 0.286 0.638 0.638s-0.286 0.638-0.638 0.638c-0.352 0-0.638-0.285-0.638-0.638s0.285-0.638 0.638-0.638zM18.093 29.528l2.184-1.948 0.603 2.84-2.787-0.892z"></path>
<path d="M15.354 3.185v1.275c0 0.352 0.285 0.638 0.638 0.638s0.638-0.285 0.638-0.638v-1.275c0-0.352-0.286-0.638-0.638-0.638s-0.638 0.286-0.638 0.638z"></path>
<path d="M3.876 14.664c-0.352 0-0.638 0.286-0.638 0.638s0.285 0.638 0.638 0.638h1.275c0.352 0 0.638-0.285 0.638-0.638s-0.285-0.638-0.638-0.638h-1.275z"></path>
<path d="M28.108 15.939c0.352 0 0.638-0.285 0.638-0.638s-0.285-0.638-0.638-0.638h-1.275c-0.352 0-0.638 0.286-0.638 0.638s0.286 0.638 0.638 0.638h1.275z"></path>
</symbol>
<symbol id="icon-diagram" viewBox="0 0 32 32">
<path d="M14.925 14.965h1.066v4.798h-1.066v-4.797z"></path>
<path d="M19.19 17.097h1.066v2.665h-1.066v-2.665z"></path>
<path d="M10.661 18.696h1.066v1.066h-1.066v-1.066z"></path>
<path d="M7.463 18.163h1.066v1.599h-1.066v-1.599z"></path>
<path d="M1.599 28.291h25.587c0.883 0 1.599-0.716 1.599-1.599v-2.132c0-0.883-0.716-1.599-1.599-1.599h-0.533v-13.293l3.028-2.868c0.703 0.346 1.553 0.136 2.013-0.499s0.396-1.508-0.152-2.068-1.42-0.644-2.065-0.198c-0.644 0.446-0.873 1.292-0.542 2.002l-2.281 2.163v-1.23c0-0.883-0.716-1.599-1.599-1.599h-21.322c-0.883 0-1.599 0.716-1.599 1.599v15.992h-0.533c-0.883 0-1.599 0.716-1.599 1.599v2.132c0 0.883 0.716 1.599 1.599 1.599zM30.384 4.837c0.294 0 0.533 0.239 0.533 0.533s-0.239 0.533-0.533 0.533c-0.294 0-0.533-0.239-0.533-0.533s0.239-0.533 0.533-0.533zM3.198 6.969c0-0.294 0.239-0.533 0.533-0.533h21.322c0.294 0 0.533 0.239 0.533 0.533v2.239l-1.066 1.013v-2.186c0-0.294-0.239-0.533-0.533-0.533h-19.19c-0.294 0-0.533 0.239-0.533 0.533v13.326c0 0.294 0.239 0.533 0.533 0.533h19.19c0.294 0 0.533-0.239 0.533-0.533v-9.674l1.066-1.010v12.284h-22.388v-15.992zM7.996 13.899c-0.721-0.002-1.354 0.478-1.546 1.174s0.105 1.433 0.725 1.801c0.62 0.368 1.41 0.276 1.928-0.226l1.853 0.93c0.215 0.108 0.476 0.057 0.636-0.123l3.939-4.431 3.872 2.901c0.208 0.156 0.498 0.139 0.686-0.039l3.365-3.188v8.131h-18.124v-12.26h18.124v2.66l-3.771 3.572-3.904-2.927c-0.222-0.166-0.534-0.135-0.718 0.072l-3.993 4.493-1.493-0.746c0.011-0.064 0.018-0.129 0.020-0.193 0-0.883-0.716-1.599-1.599-1.599zM8.529 15.498c0 0.294-0.239 0.533-0.533 0.533s-0.533-0.239-0.533-0.533c0-0.294 0.239-0.533 0.533-0.533s0.533 0.239 0.533 0.533zM11.727 24.027h5.331v0.533c0 0.294-0.239 0.533-0.533 0.533h-4.264c-0.294 0-0.533-0.239-0.533-0.533v-0.533zM1.066 24.56c0-0.294 0.239-0.533 0.533-0.533h9.062v0.533c0 0.883 0.716 1.599 1.599 1.599h4.264c0.883 0 1.599-0.716 1.599-1.599v-0.533h9.062c0.294 0 0.533 0.239 0.533 0.533v2.132c0 0.294-0.239 0.533-0.533 0.533h-25.587c-0.294 0-0.533-0.239-0.533-0.533v-2.132z"></path>
</symbol>
<symbol id="icon-facebook" viewBox="0 0 32 32">
<path d="M21.329 5.313h2.921v-5.088c-0.504-0.069-2.237-0.225-4.256-0.225-4.212 0-7.097 2.649-7.097 7.519v4.481h-4.648v5.688h4.648v14.312h5.699v-14.311h4.46l0.708-5.688h-5.169v-3.919c0.001-1.644 0.444-2.769 2.735-2.769z"></path>
</symbol>
<symbol id="icon-instagram" viewBox="0 0 32 32">
<path d="M31.969 9.408c-0.075-1.7-0.35-2.869-0.744-3.882-0.406-1.075-1.031-2.038-1.85-2.838-0.8-0.813-1.769-1.444-2.832-1.844-1.019-0.394-2.182-0.669-3.882-0.744-1.713-0.081-2.257-0.1-6.601-0.1s-4.888 0.019-6.595 0.094c-1.7 0.075-2.869 0.35-3.882 0.744-1.075 0.406-2.038 1.031-2.838 1.85-0.813 0.8-1.444 1.769-1.844 2.832-0.394 1.019-0.669 2.182-0.744 3.882-0.081 1.713-0.1 2.257-0.1 6.601s0.019 4.888 0.094 6.595c0.075 1.7 0.35 2.869 0.744 3.882 0.406 1.075 1.038 2.038 1.85 2.838 0.8 0.813 1.769 1.444 2.832 1.844 1.019 0.394 2.182 0.669 3.882 0.744 1.706 0.075 2.25 0.094 6.595 0.094s4.888-0.019 6.595-0.094c1.7-0.075 2.869-0.35 3.882-0.744 2.151-0.831 3.851-2.532 4.682-4.682 0.394-1.019 0.669-2.182 0.744-3.882 0.075-1.707 0.094-2.25 0.094-6.595s-0.006-4.888-0.081-6.595zM29.087 22.473c-0.069 1.563-0.331 2.407-0.55 2.969-0.538 1.394-1.644 2.5-3.038 3.038-0.563 0.219-1.413 0.481-2.969 0.55-1.688 0.075-2.194 0.094-6.464 0.094s-4.782-0.019-6.464-0.094c-1.563-0.069-2.407-0.331-2.969-0.55-0.694-0.256-1.325-0.663-1.838-1.194-0.531-0.519-0.938-1.144-1.194-1.838-0.219-0.563-0.481-1.413-0.55-2.969-0.075-1.688-0.094-2.194-0.094-6.464s0.019-4.782 0.094-6.464c0.069-1.563 0.331-2.407 0.55-2.969 0.256-0.694 0.663-1.325 1.2-1.838 0.519-0.531 1.144-0.938 1.838-1.194 0.563-0.219 1.413-0.481 2.969-0.55 1.688-0.075 2.194-0.094 6.464-0.094 4.276 0 4.782 0.019 6.464 0.094 1.563 0.069 2.407 0.331 2.969 0.55 0.694 0.256 1.325 0.662 1.838 1.194 0.531 0.519 0.938 1.144 1.194 1.838 0.219 0.563 0.481 1.413 0.55 2.969 0.075 1.688 0.094 2.194 0.094 6.464s-0.019 4.77-0.094 6.458z"></path>
<path d="M16.059 7.783c-4.538 0-8.22 3.682-8.22 8.22s3.682 8.22 8.22 8.22c4.538 0 8.22-3.682 8.22-8.22s-3.682-8.22-8.22-8.22zM16.059 21.335c-2.944 0-5.332-2.388-5.332-5.332s2.388-5.332 5.332-5.332c2.944 0 5.332 2.388 5.332 5.332s-2.388 5.332-5.332 5.332z"></path>
<path d="M26.524 7.458c0 1.060-0.859 1.919-1.919 1.919s-1.919-0.859-1.919-1.919c0-1.060 0.859-1.919 1.919-1.919s1.919 0.859 1.919 1.919z"></path>
</symbol>
<symbol id="icon-linkedin" viewBox="0 0 32 32">
<path d="M31.992 32v-0.001h0.008v-11.736c0-5.741-1.236-10.164-7.948-10.164-3.227 0-5.392 1.771-6.276 3.449h-0.093v-2.913h-6.364v21.364h6.627v-10.579c0-2.785 0.528-5.479 3.977-5.479 3.399 0 3.449 3.179 3.449 5.657v10.401h6.62z"></path>
<path d="M0.528 10.636h6.635v21.364h-6.635v-21.364z"></path>
<path d="M3.843-0c-2.121 0-3.843 1.721-3.843 3.843s1.721 3.879 3.843 3.879c2.121 0 3.843-1.757 3.843-3.879-0.001-2.121-1.723-3.843-3.843-3.843v0z"></path>
</symbol>
<symbol id="icon-Logo" viewBox="0 0 153 32">
<path d="M7.608 7.675h3.072l1.944 5.64 1.968-5.64h3.048l-2.928 7.752 2.16 5.424 4.824-13.224h3.6l-6.816 17.040h-2.856l-3-7.152-2.976 7.152h-2.856l-6.792-17.040h3.552l4.848 13.224 2.112-5.424-2.904-7.752zM39.594 21.763v2.904h-11.832v-17.040h11.616v2.904h-8.304v4.104h7.176v2.688h-7.176v4.44h8.52zM56.624 20.275c0 0.96-0.248 1.768-0.744 2.424-0.496 0.64-1.168 1.128-2.016 1.464-0.832 0.336-1.744 0.504-2.736 0.504h-8.232v-17.040h9.12c0.8 0 1.488 0.216 2.064 0.648 0.592 0.416 1.040 0.96 1.344 1.632 0.32 0.656 0.48 1.344 0.48 2.064 0 0.816-0.208 1.592-0.624 2.328s-1.024 1.28-1.824 1.632c0.976 0.288 1.744 0.808 2.304 1.56 0.576 0.752 0.864 1.68 0.864 2.784zM53.288 19.651c0-0.432-0.088-0.816-0.264-1.152-0.176-0.352-0.416-0.624-0.72-0.816-0.288-0.208-0.624-0.312-1.008-0.312h-5.088v4.488h4.92c0.4 0 0.76-0.096 1.080-0.288 0.336-0.208 0.6-0.48 0.792-0.816s0.288-0.704 0.288-1.104zM46.208 10.459v4.296h4.416c0.368 0 0.704-0.088 1.008-0.264s0.544-0.424 0.72-0.744c0.192-0.32 0.288-0.704 0.288-1.152 0-0.432-0.088-0.808-0.264-1.128-0.16-0.32-0.384-0.568-0.672-0.744-0.272-0.176-0.584-0.264-0.936-0.264h-4.56z"></path>
<path d="M70.595 12.091c-0.112-0.112-0.32-0.264-0.624-0.456-0.288-0.192-0.648-0.376-1.080-0.552-0.416-0.176-0.872-0.328-1.368-0.456-0.496-0.144-1-0.216-1.512-0.216-0.896 0-1.576 0.168-2.040 0.504-0.448 0.336-0.672 0.808-0.672 1.416 0 0.464 0.144 0.832 0.432 1.104s0.72 0.504 1.296 0.696c0.576 0.192 1.296 0.4 2.16 0.624 1.12 0.272 2.088 0.608 2.904 1.008 0.832 0.384 1.464 0.896 1.896 1.536 0.448 0.624 0.672 1.456 0.672 2.496 0 0.912-0.168 1.696-0.504 2.352-0.336 0.64-0.8 1.16-1.392 1.56s-1.264 0.696-2.016 0.888c-0.752 0.176-1.552 0.264-2.4 0.264s-1.696-0.088-2.544-0.264c-0.848-0.176-1.664-0.424-2.448-0.744-0.784-0.336-1.504-0.736-2.16-1.2l1.464-2.856c0.144 0.144 0.4 0.336 0.768 0.576 0.368 0.224 0.816 0.456 1.344 0.696 0.528 0.224 1.104 0.416 1.728 0.576s1.256 0.24 1.896 0.24c0.896 0 1.576-0.152 2.040-0.456s0.696-0.736 0.696-1.296c0-0.512-0.184-0.912-0.552-1.2s-0.88-0.536-1.536-0.744c-0.656-0.224-1.432-0.464-2.328-0.72-1.072-0.304-1.968-0.64-2.688-1.008-0.72-0.384-1.256-0.864-1.608-1.44s-0.528-1.296-0.528-2.16c0-1.168 0.272-2.144 0.816-2.928 0.56-0.8 1.312-1.4 2.256-1.8 0.944-0.416 1.992-0.624 3.144-0.624 0.8 0 1.552 0.088 2.256 0.264 0.72 0.176 1.392 0.408 2.016 0.696s1.184 0.6 1.68 0.936l-1.464 2.688zM88.625 10.531h-5.448v14.136h-3.288v-14.136h-5.448v-2.904h14.184v2.904zM98.685 24.787c-1.36 0-2.52-0.224-3.48-0.672-0.944-0.464-1.712-1.096-2.304-1.896-0.576-0.8-1-1.704-1.272-2.712-0.272-1.024-0.408-2.088-0.408-3.192v-8.688h3.312v8.688c0 0.704 0.064 1.392 0.192 2.064 0.144 0.656 0.376 1.248 0.696 1.776s0.744 0.944 1.272 1.248c0.528 0.304 1.184 0.456 1.968 0.456 0.8 0 1.464-0.152 1.992-0.456 0.544-0.32 0.968-0.744 1.272-1.272 0.32-0.528 0.552-1.12 0.696-1.776 0.144-0.672 0.216-1.352 0.216-2.040v-8.688h3.288v8.688c0 1.168-0.144 2.264-0.432 3.288-0.272 1.024-0.712 1.928-1.32 2.712-0.592 0.768-1.36 1.376-2.304 1.824-0.944 0.432-2.072 0.648-3.384 0.648zM110.181 24.667v-17.040h6.192c1.856 0 3.408 0.384 4.656 1.152 1.248 0.752 2.184 1.776 2.808 3.072 0.624 1.28 0.936 2.704 0.936 4.272 0 1.728-0.344 3.232-1.032 4.512s-1.664 2.272-2.928 2.976c-1.248 0.704-2.728 1.056-4.44 1.056h-6.192zM121.437 16.123c0-1.104-0.2-2.072-0.6-2.904-0.4-0.848-0.976-1.504-1.728-1.968-0.752-0.48-1.664-0.72-2.736-0.72h-2.88v11.232h2.88c1.088 0 2.008-0.24 2.76-0.72 0.752-0.496 1.32-1.168 1.704-2.016 0.4-0.864 0.6-1.832 0.6-2.904zM128.081 24.667v-17.040h3.312v17.040h-3.312zM142.94 24.787c-1.248 0-2.384-0.24-3.408-0.72-1.008-0.48-1.88-1.128-2.616-1.944-0.72-0.832-1.28-1.76-1.68-2.784-0.4-1.040-0.6-2.104-0.6-3.192 0-1.136 0.208-2.216 0.624-3.24 0.432-1.040 1.016-1.96 1.752-2.76 0.752-0.816 1.632-1.456 2.64-1.92 1.024-0.48 2.144-0.72 3.36-0.72 1.232 0 2.352 0.248 3.36 0.744 1.024 0.496 1.896 1.16 2.616 1.992s1.28 1.76 1.68 2.784c0.4 1.024 0.6 2.080 0.6 3.168 0 1.12-0.208 2.2-0.624 3.24-0.416 1.024-1 1.944-1.752 2.76-0.736 0.8-1.616 1.432-2.64 1.896-1.008 0.464-2.112 0.696-3.312 0.696zM137.996 16.147c0 0.736 0.112 1.448 0.336 2.136s0.544 1.304 0.96 1.848c0.432 0.528 0.952 0.952 1.56 1.272 0.624 0.304 1.328 0.456 2.112 0.456 0.8 0 1.512-0.16 2.136-0.48 0.624-0.336 1.144-0.776 1.56-1.32 0.416-0.56 0.728-1.176 0.936-1.848 0.224-0.688 0.336-1.376 0.336-2.064 0-0.736-0.12-1.44-0.36-2.112-0.224-0.688-0.552-1.296-0.984-1.824-0.416-0.544-0.936-0.968-1.56-1.272-0.608-0.32-1.296-0.48-2.064-0.48-0.816 0-1.536 0.168-2.16 0.504-0.608 0.32-1.12 0.752-1.536 1.296s-0.736 1.152-0.96 1.824c-0.208 0.672-0.312 1.36-0.312 2.064z"></path>
</symbol>
<symbol id="icon-Studio" viewBox="0 0 160 32">
<path d="M20.448 9.298c-0.192-0.192-0.549-0.453-1.070-0.782-0.494-0.329-1.111-0.645-1.851-0.946-0.713-0.302-1.495-0.562-2.345-0.782-0.85-0.247-1.714-0.37-2.592-0.37-1.536 0-2.702 0.288-3.497 0.864-0.768 0.576-1.152 1.385-1.152 2.427 0 0.795 0.247 1.426 0.741 1.893s1.234 0.864 2.222 1.193c0.987 0.329 2.222 0.686 3.703 1.070 1.92 0.466 3.579 1.042 4.978 1.728 1.426 0.658 2.51 1.536 3.25 2.633 0.768 1.070 1.152 2.496 1.152 4.279 0 1.563-0.288 2.907-0.864 4.032-0.576 1.097-1.371 1.989-2.386 2.674s-2.167 1.193-3.456 1.522c-1.289 0.302-2.661 0.453-4.114 0.453s-2.907-0.151-4.361-0.453c-1.454-0.302-2.853-0.727-4.197-1.275-1.344-0.576-2.578-1.262-3.703-2.057l2.51-4.896c0.247 0.247 0.686 0.576 1.317 0.987 0.631 0.384 1.399 0.782 2.304 1.193 0.905 0.384 1.893 0.713 2.962 0.987s2.153 0.411 3.25 0.411c1.536 0 2.702-0.261 3.497-0.782s1.193-1.262 1.193-2.222c0-0.878-0.315-1.563-0.946-2.057s-1.509-0.919-2.633-1.275c-1.125-0.384-2.455-0.795-3.991-1.234-1.838-0.521-3.374-1.097-4.608-1.728-1.234-0.658-2.153-1.481-2.757-2.469s-0.905-2.222-0.905-3.703c0-2.002 0.466-3.675 1.399-5.019 0.96-1.371 2.249-2.4 3.867-3.086 1.618-0.713 3.415-1.070 5.39-1.070 1.371 0 2.661 0.151 3.867 0.453 1.234 0.302 2.386 0.699 3.456 1.193s2.030 1.029 2.88 1.605l-2.51 4.608zM51.358 6.624h-9.339v24.233h-5.637v-24.233h-9.339v-4.978h24.315v4.978zM68.603 31.063c-2.331 0-4.32-0.384-5.966-1.152-1.618-0.795-2.935-1.879-3.95-3.25-0.987-1.371-1.714-2.921-2.181-4.649-0.466-1.755-0.699-3.579-0.699-5.472v-14.894h5.678v14.894c0 1.207 0.11 2.386 0.329 3.538 0.247 1.125 0.645 2.139 1.193 3.045s1.275 1.618 2.181 2.139c0.905 0.521 2.030 0.782 3.374 0.782 1.371 0 2.51-0.261 3.415-0.782 0.933-0.549 1.659-1.275 2.181-2.181 0.549-0.905 0.946-1.92 1.193-3.045 0.247-1.152 0.37-2.318 0.37-3.497v-14.894h5.637v14.894c0 2.002-0.247 3.881-0.741 5.637-0.466 1.755-1.221 3.305-2.263 4.649-1.015 1.317-2.331 2.359-3.95 3.127-1.618 0.741-3.552 1.111-5.801 1.111zM88.31 30.857v-29.211h10.615c3.182 0 5.842 0.658 7.982 1.975 2.139 1.289 3.744 3.045 4.814 5.266 1.070 2.194 1.605 4.635 1.605 7.323 0 2.962-0.59 5.541-1.769 7.735s-2.853 3.895-5.019 5.102c-2.139 1.207-4.677 1.81-7.611 1.81h-10.615zM107.606 16.21c0-1.893-0.343-3.552-1.029-4.978-0.686-1.454-1.673-2.578-2.962-3.374-1.289-0.823-2.853-1.234-4.69-1.234h-4.937v19.255h4.937c1.865 0 3.442-0.411 4.731-1.234 1.289-0.85 2.263-2.002 2.921-3.456 0.686-1.481 1.029-3.141 1.029-4.978zM118.995 30.857v-29.211h5.678v29.211h-5.678zM144.468 31.063c-2.139 0-4.087-0.411-5.842-1.234-1.728-0.823-3.223-1.934-4.485-3.333-1.234-1.426-2.194-3.017-2.88-4.773-0.686-1.783-1.029-3.607-1.029-5.472 0-1.947 0.357-3.799 1.070-5.554 0.741-1.783 1.742-3.36 3.003-4.731 1.289-1.399 2.798-2.496 4.526-3.291 1.755-0.823 3.675-1.234 5.76-1.234 2.112 0 4.032 0.425 5.76 1.275 1.755 0.85 3.25 1.989 4.485 3.415s2.194 3.017 2.88 4.773c0.686 1.755 1.029 3.566 1.029 5.431 0 1.92-0.357 3.771-1.070 5.554-0.713 1.755-1.714 3.333-3.003 4.731-1.262 1.371-2.77 2.455-4.526 3.25-1.728 0.795-3.621 1.193-5.678 1.193zM135.993 16.251c0 1.262 0.192 2.482 0.576 3.662s0.933 2.235 1.646 3.168c0.741 0.905 1.632 1.632 2.674 2.181 1.070 0.521 2.277 0.782 3.621 0.782 1.371 0 2.592-0.274 3.662-0.823 1.070-0.576 1.961-1.33 2.674-2.263 0.713-0.96 1.248-2.016 1.605-3.168 0.384-1.179 0.576-2.359 0.576-3.538 0-1.262-0.206-2.469-0.617-3.621-0.384-1.179-0.946-2.222-1.687-3.127-0.713-0.933-1.605-1.659-2.674-2.181-1.042-0.549-2.222-0.823-3.538-0.823-1.399 0-2.633 0.288-3.703 0.864-1.042 0.549-1.92 1.289-2.633 2.222s-1.262 1.975-1.646 3.127c-0.357 1.152-0.535 2.331-0.535 3.538z"></path>
</symbol>
<symbol id="icon-twitter" viewBox="0 0 32 32">
<path d="M32 6.078c-1.19 0.522-2.458 0.868-3.78 1.036 1.36-0.812 2.398-2.088 2.886-3.626-1.268 0.756-2.668 1.29-4.16 1.588-1.204-1.282-2.92-2.076-4.792-2.076-3.632 0-6.556 2.948-6.556 6.562 0 0.52 0.044 1.020 0.152 1.496-5.454-0.266-10.28-2.88-13.522-6.862-0.566 0.982-0.898 2.106-0.898 3.316 0 2.272 1.17 4.286 2.914 5.452-1.054-0.020-2.088-0.326-2.964-0.808 0 0.020 0 0.046 0 0.072 0 3.188 2.274 5.836 5.256 6.446-0.534 0.146-1.116 0.216-1.72 0.216-0.42 0-0.844-0.024-1.242-0.112 0.85 2.598 3.262 4.508 6.13 4.57-2.232 1.746-5.066 2.798-8.134 2.798-0.538 0-1.054-0.024-1.57-0.090 2.906 1.874 6.35 2.944 10.064 2.944 12.072 0 18.672-10 18.672-18.668 0-0.29-0.010-0.57-0.024-0.848 1.302-0.924 2.396-2.078 3.288-3.406z"></path>
</symbol>
<symbol id="icon-Web" viewBox="0 0 98 32">
<path d="M13.042 1.728h5.266l3.333 9.669 3.374-9.669h5.225l-5.019 13.289 3.703 9.298 8.27-22.67h6.171l-11.685 29.211h-4.896l-5.143-12.261-5.102 12.261h-4.896l-11.643-29.211h6.089l8.311 22.67 3.621-9.298-4.978-13.289zM67.875 25.879v4.978h-20.283v-29.211h19.913v4.978h-14.235v7.035h12.302v4.608h-12.302v7.611h14.606zM97.069 23.328c0 1.646-0.425 3.031-1.275 4.155-0.85 1.097-2.002 1.934-3.456 2.51-1.426 0.576-2.99 0.864-4.69 0.864h-14.112v-29.211h15.634c1.371 0 2.551 0.37 3.538 1.111 1.015 0.713 1.783 1.646 2.304 2.798 0.549 1.125 0.823 2.304 0.823 3.538 0 1.399-0.357 2.729-1.070 3.991s-1.755 2.194-3.127 2.798c1.673 0.494 2.99 1.385 3.95 2.674 0.987 1.289 1.481 2.88 1.481 4.773zM91.35 22.258c0-0.741-0.151-1.399-0.453-1.975-0.302-0.603-0.713-1.070-1.234-1.399-0.494-0.357-1.070-0.535-1.728-0.535h-8.722v7.694h8.434c0.686 0 1.303-0.165 1.851-0.494 0.576-0.357 1.029-0.823 1.358-1.399s0.494-1.207 0.494-1.893zM79.213 6.501v7.365h7.57c0.631 0 1.207-0.151 1.728-0.453s0.933-0.727 1.234-1.275c0.329-0.549 0.494-1.207 0.494-1.975 0-0.741-0.151-1.385-0.453-1.934-0.274-0.549-0.658-0.974-1.152-1.275-0.466-0.302-1.001-0.453-1.605-0.453h-7.817z"></path>
</symbol>
</defs>
</svg>
